<svg width="101" height="100" viewBox="0 0 101 100" fill="none" xmlns="http://www.w3.org/2000/svg">
<g clip-path="url(#clip0_82_29325)">
<path d="M0.49513 46.7003C0.685853 45.3554 0.86435 44.0106 1.06974 42.6657C2.55885 32.8704 6.52491 24.2145 13.1269 16.8228C20.1029 9.00558 28.7026 3.78759 38.916 1.42556C53.587 -1.97078 67.2188 0.709125 79.5058 9.36257C90.0812 16.8081 96.688 27.0803 99.3704 39.7071C101.901 51.6126 100.214 63.0169 94.4238 73.7781C91.3379 79.5632 87.1213 84.6694 82.0243 88.7938C81.5868 89.1716 81.0768 89.4562 80.5255 89.6301C79.699 89.8477 78.9923 89.5176 78.5326 88.7596C78.2995 88.4209 78.1915 88.0117 78.2272 87.6021C78.2629 87.1925 78.4401 86.8082 78.7283 86.5149C79.0825 86.1335 79.4659 85.7803 79.875 85.4586C88.4331 78.2918 93.6389 69.1591 95.7295 58.2366C96.5878 53.7472 96.6856 48.0207 96.1452 45.0033C95.3407 45.9692 94.5045 47.1062 93.5289 48.1136C92.1473 49.5391 90.5947 49.1699 89.9124 47.3165C89.1544 45.2772 88.5872 43.1597 87.6238 41.2158C86.8902 39.7487 85.7068 38.4796 84.6382 37.1935C84.4157 36.9245 83.8264 36.9612 83.1393 36.7925C84 38.4894 83.1711 39.3941 82.1466 40.3233C79.3567 42.8589 76.1315 44.617 72.6104 45.8567C71.3023 46.3164 70.4636 45.9692 69.7936 44.7026C68.1814 41.6608 66.5888 38.61 65.0158 35.5503C64.7962 35.1516 64.6857 34.7021 64.6954 34.247C64.7712 33.3374 64.3482 32.7799 63.7614 32.1466C62.5388 30.836 61.0864 30.0536 59.4041 29.5425C58.2647 29.1953 57.7096 28.3982 57.7732 27.5106C57.7896 27.2172 57.872 26.9313 58.0141 26.6741C58.1562 26.4169 58.3544 26.1951 58.594 26.025C58.8336 25.8549 59.1085 25.741 59.3981 25.6917C59.6878 25.6424 59.9849 25.659 60.2672 25.7403C62.353 26.354 64.4607 26.9507 65.9034 28.7894C66.2541 29.218 66.6565 29.6016 67.1015 29.9313C68.2507 30.8189 68.8131 31.9364 68.6322 33.4059C68.6026 33.6939 68.6543 33.9844 68.7813 34.2446C70.0406 36.6898 71.3218 39.1349 72.7205 41.8246L78.7723 38.2327C78.6109 36.9563 78.3321 36.032 78.4275 35.1664C78.5644 33.9438 79.6232 33.0954 80.8727 33.044C82.1721 32.9763 83.4743 32.9845 84.7727 33.0685C86.1004 33.1687 87.0956 33.9536 87.993 34.9072C89.8171 36.8462 91.36 38.9418 92.0324 41.5752C92.096 41.8197 92.2109 42.0642 92.3845 42.5019C92.5906 40.9294 93.3751 39.4902 94.5852 38.465C94.7881 38.2816 94.8444 37.7583 94.7588 37.4527C93.1081 31.519 90.2587 25.9867 86.3865 21.1972C79.5009 12.6978 70.6616 7.35753 60.0032 5.00773C58.509 4.69867 56.9988 4.47255 55.4796 4.33042C55.2725 4.32563 55.0667 4.36478 54.8757 4.44527C54.6848 4.52577 54.5131 4.64579 54.3719 4.79744C52.7924 6.69734 51.3179 8.68526 49.7041 10.5558C49.1228 11.2356 48.3853 11.7642 47.5548 12.0963C43.8871 13.468 40.1533 14.7101 36.4635 16.0501C36.0103 16.2398 35.6411 16.5872 35.4243 17.0282C34.6093 18.8311 33.8513 20.6584 33.1503 22.5102C33.0842 22.7235 33.0616 22.9479 33.0839 23.1701C33.1062 23.3923 33.1728 23.6078 33.2799 23.8037C34.0135 24.9774 34.8668 26.0826 35.7104 27.2636C37.8182 24.2756 40.6008 22.9259 44.1365 23.0848C45.4397 23.1435 46.3665 23.9455 46.3542 25.0605C46.342 26.1755 45.4324 26.9971 44.1096 26.9824C42.6425 26.9702 41.2243 27.1756 40.1093 28.205C39.5151 28.7527 39.075 29.4692 38.4612 30.2419C39.6838 30.2419 40.6081 30.2419 41.5373 30.2419C42.7036 30.2541 43.8773 30.2003 45.0314 30.3177C47.347 30.5622 48.4229 31.8165 48.4008 34.1737L50.5648 35.4941C52.0319 33.6871 53.7998 33.379 55.8806 34.1908C56.7971 34.517 57.73 34.7953 58.6754 35.0246C61.1817 35.719 62.7882 37.3793 63.7907 39.7193C64.7933 42.0593 65.8007 44.3651 66.8374 46.6734C67.571 48.3239 68.7104 49.456 70.669 49.5C71.1823 49.5462 71.6872 49.6605 72.1703 49.8399C74.2756 50.4854 75.1828 52.3388 74.1582 54.273C73.5323 55.4564 72.6276 56.5176 71.7351 57.5348C70.5516 58.887 69.2361 60.1096 68.0404 61.4324C67.324 62.2197 67.0257 63.1978 67.4316 64.237C68.6982 67.4818 67.9328 70.2008 65.4314 72.5506C65.0695 72.8905 64.8666 73.4064 64.605 73.8514C63.9937 74.8759 63.3653 75.8907 62.798 76.9397C62.419 77.6414 62.1622 78.4068 61.8004 79.1183C61.3113 80.0572 60.9641 81.1502 60.2428 81.8544C59.0408 83.0778 57.6738 84.1271 56.1814 84.972C53.4354 86.4391 51.2201 85.6909 49.7384 82.9376C48.9755 81.5146 48.4375 79.9692 47.8189 78.4728C47.1114 76.7628 46.4178 75.0512 45.7381 73.3379C45.0228 71.5357 44.9993 69.5326 45.672 67.714C46.0266 66.6773 46.4716 65.6087 45.9997 64.5011C45.7615 63.904 45.4224 63.3523 44.9972 62.8702C43.7868 61.5864 43.2856 60.0851 43.2856 58.349C43.2856 57.1778 42.8185 56.8306 41.6253 56.9798C39.8281 57.2096 38.0284 57.6228 36.2337 57.5984C31.2284 57.5348 26.7318 53.2876 26.0789 48.3288C25.5899 44.5412 26.6706 41.2916 29.0669 38.3892C30.803 36.2863 32.4901 34.1419 34.2213 31.9828C32.5831 29.6844 30.9913 27.3908 29.331 25.151C28.6121 24.1729 28.4972 23.2829 28.9862 22.1679C30.0914 19.6396 31.1184 17.0795 32.1429 14.5194C32.3048 14.0789 32.5673 13.6822 32.9094 13.3608C33.2515 13.0395 33.6639 12.8024 34.1137 12.6684C37.951 11.3643 41.7753 10.0195 45.5865 8.63391C46.1469 8.41124 46.6452 8.0564 47.0389 7.5996C47.9925 6.50662 48.863 5.33538 49.9022 4.02477C39.4344 4.25462 30.2797 7.52625 22.2449 13.693C23.1985 14.808 24.2793 15.7811 25.003 16.9744C26.8736 20.0528 26.6902 23.7573 24.2279 26.3858C21.6654 29.1195 19.9293 32.3276 18.1835 35.5381C16.9878 37.7387 15.5574 39.6142 13.3567 40.849C13.0814 41.0298 12.8169 41.2266 12.5645 41.4383C13.2785 42.4897 13.99 43.524 14.6869 44.5681C15.8434 46.3042 15.1759 47.7713 13.1146 48.0598C11.249 48.3214 9.3882 48.5977 7.5201 48.8373C6.43444 48.9767 5.42948 48.8227 4.58589 47.8153V52.7741C5.99186 52.3168 7.34649 51.928 8.65954 51.4366C9.91147 50.9671 10.9311 51.1407 11.9923 52.0014C14.1367 53.7399 16.4376 55.2926 18.5502 57.0678C19.9367 58.2341 21.5871 58.2904 23.1814 58.596C25.6266 59.0533 27.6927 60.0362 28.5779 62.5083C28.9546 63.5721 29.0761 64.7095 28.9324 65.8288C28.7257 67.0416 28.8352 68.2871 29.2503 69.4452C30.0107 71.4967 29.8494 73.4577 28.6023 75.2941C27.8493 76.4112 26.7304 77.2308 25.4383 77.6121C25.1886 77.6686 24.9635 77.8035 24.7959 77.9971C24.6283 78.1906 24.5269 78.4327 24.5067 78.688C24.0445 81.2407 23.5775 83.7959 23.0542 86.3389C22.9873 86.5313 22.9914 86.7414 23.0658 86.9311C23.1402 87.1208 23.2801 87.2776 23.4601 87.3732C29.2289 91.584 35.9101 94.3738 42.9604 95.5156C50.8876 96.8237 58.6241 96.0242 66.1772 93.3149C66.5071 93.181 66.8473 93.0739 67.1944 92.9946C68.2874 92.7941 69.2043 93.3198 69.5173 94.2906C69.6607 94.7465 69.6295 95.2395 69.4298 95.6738C69.2301 96.108 68.8761 96.4525 68.4365 96.6404C67.757 96.9502 67.0578 97.2149 66.3435 97.4326C62.5547 98.7027 58.6246 99.5033 54.6409 99.8166C54.3543 99.8551 54.0707 99.9139 53.7924 99.9927H47.545C47.2982 99.9259 47.0475 99.8744 46.7944 99.8386C40.2169 99.3496 33.9181 97.7309 28.0742 94.6744C13.3885 87.0064 4.45141 74.9786 1.26047 58.7085C0.915698 56.9357 0.74209 55.1288 0.487793 53.3291L0.49513 46.7003ZM43.8064 34.0343C41.8233 34.1737 39.965 34.2177 38.1409 34.4793C37.4832 34.5747 36.757 35.0759 36.3095 35.6017C34.7079 37.4795 33.2017 39.4406 31.6857 41.3918C31.3081 41.8803 30.9804 42.4053 30.7076 42.9592C28.414 47.5487 30.8763 52.8083 35.8302 53.6103C37.2118 53.8328 38.7351 53.5003 40.1411 53.1873C44.2001 52.2899 47.347 54.5004 47.3201 58.5496C47.3201 59.178 47.8091 59.8259 48.1123 60.4348C48.6845 61.5473 49.4498 62.5816 49.8557 63.7455C50.4743 65.5109 49.8948 67.2592 49.4303 68.9953C49.2371 69.7289 49.0464 70.6018 49.286 71.2522C50.5086 74.5605 51.8754 77.8199 53.1983 81.094C53.2325 81.182 53.2789 81.2994 53.3548 81.3385C53.5993 81.4534 53.9269 81.6882 54.0883 81.6075C55.8439 80.6881 57.5556 79.7663 58.1742 77.5998C58.4945 76.48 59.2011 75.4677 59.7611 74.4211C60.0961 73.7976 60.4775 73.1985 60.8492 72.597C61.4629 71.619 61.9397 70.4869 62.7369 69.6848C63.9594 68.4623 64.3189 67.2568 63.7345 65.5892C62.8151 62.9704 63.4777 60.5742 65.2774 58.5251C66.3484 57.3025 67.5563 56.212 68.7006 55.0456C69.1897 54.5566 69.6249 54.0309 70.2484 53.334C66.7029 53.2191 64.7101 51.2972 63.3873 48.561C62.3823 46.49 61.4311 44.3871 60.6145 42.2354C59.8418 40.1839 58.6314 38.7804 56.377 38.4478C55.8879 38.3794 55.4454 38.1153 54.971 38.0811C54.5993 38.0463 54.2289 38.1586 53.9391 38.394C52.9048 39.487 51.6603 40.0885 50.2714 39.4724C48.4742 38.6826 46.7895 37.6336 45.0583 36.6971C44.0509 36.1616 43.5619 35.3718 43.8064 34.0343ZM19.4745 84.0942C19.944 81.649 20.4526 79.4166 20.7827 77.1499C21.015 75.4897 21.7607 74.5678 23.4112 74.1204C25.7146 73.4969 26.1523 72.5286 25.3894 70.2888C24.8441 68.6897 24.5776 67.1223 25.0544 65.4278C25.4578 63.9949 24.7145 62.9998 23.2156 62.6697C22.2669 62.4594 21.3157 62.2467 20.3548 62.1073C18.9073 61.9126 17.5438 61.3144 16.4205 60.381C14.4375 58.7549 12.3664 57.2341 10.2954 55.7181C9.94136 55.49 9.51199 55.4101 9.09967 55.4955C7.91132 55.8085 6.76209 56.2682 5.57619 56.6032C5.02847 56.7597 4.96001 57.014 5.04803 57.5201C6.75903 67.739 11.8369 77.0927 19.4745 84.0942ZM9.85034 44.4825L8.55196 42.5557C7.50054 41.0006 7.6717 40.047 9.21215 38.9369C10.2685 38.1789 11.3615 37.4698 12.3738 36.658C12.9476 36.2009 13.4431 35.6533 13.8409 35.0368C16.2176 31.259 18.0196 27.1463 21.1764 23.8306C23.2352 21.6691 22.1789 18.2067 19.4403 16.9157C18.9757 16.6981 18.6798 16.6932 18.2715 17.1015C11.4481 23.8343 6.88022 32.5172 5.19719 41.9542C5.14095 42.2525 5.10916 42.6462 5.25587 42.876C6.29017 44.5143 7.7206 45.0156 9.85034 44.4874V44.4825Z" fill="url(#paint0_linear_82_29325)"/>
<path d="M68.7129 78.0059C68.9305 77.0131 68.977 76.238 69.2704 75.5729C69.8279 74.3137 69.9208 73.052 69.8303 71.6973C69.7056 69.7999 70.5957 68.2619 72.2877 67.5137C74.1069 66.7068 75.0972 65.3668 75.8528 63.6478C76.1386 63.0795 76.6157 62.6302 77.2001 62.3788C78.161 61.9827 79.1929 62.5304 79.5303 63.5623C79.9435 64.8215 80.2467 66.1175 80.5426 67.411C80.6135 67.7942 80.5883 68.1891 80.4693 68.5602C79.4643 71.8416 78.4569 75.123 77.3908 78.3849C77.1193 79.1479 76.7476 79.8715 76.2856 80.5366C74.4248 83.3608 71.3952 83.3168 69.6298 80.4095C69.1604 79.6343 68.9672 78.693 68.7129 78.0059ZM75.9237 70.2449L75.733 70.1006C75.2586 70.3452 74.7378 70.5334 74.3319 70.8635C74.0458 71.0958 73.6937 71.5702 73.7548 71.8563C74.1363 73.6412 73.6375 75.2477 72.987 76.864C72.8257 77.2625 72.8941 77.754 72.8575 78.2039L73.2976 78.2968L75.9237 70.2449Z" fill="url(#paint1_linear_82_29325)"/>
<path d="M52.6087 27.0192C52.0709 27.0412 51.5462 26.8502 51.1484 26.4876C50.7505 26.125 50.5118 25.6202 50.4839 25.0826C50.4851 24.5613 50.6906 24.0611 51.0562 23.6895C51.4219 23.3178 51.9187 23.1043 52.44 23.0947C53.5477 23.0947 54.538 24.041 54.5233 25.0973C54.5182 25.6042 54.3151 26.089 53.9574 26.4481C53.5996 26.8073 53.1156 27.0122 52.6087 27.0192Z" fill="url(#paint2_linear_82_29325)"/>
<path d="M74.4126 93.5863C74.16 93.593 73.9086 93.5483 73.6738 93.4549C73.439 93.3615 73.2256 93.2214 73.0465 93.0431C72.8675 92.8647 72.7266 92.6518 72.6323 92.4174C72.538 92.1829 72.4923 91.9317 72.498 91.6791C72.4936 91.4108 72.5437 91.1444 72.6455 90.8961C72.7472 90.6478 72.8984 90.4228 73.0899 90.2348C73.2813 90.0467 73.509 89.8996 73.7591 89.8024C74.0092 89.7052 74.2765 89.6598 74.5446 89.6692C75.0506 89.6882 75.5295 89.9026 75.8807 90.2674C76.2318 90.6322 76.4278 91.119 76.4274 91.6253C76.4171 92.1515 76.1999 92.6525 75.8227 93.0196C75.4456 93.3866 74.9389 93.5903 74.4126 93.5863Z" fill="url(#paint3_linear_82_29325)"/>
</g>
<defs>
<linearGradient id="paint0_linear_82_29325" x1="0.487793" y1="-0.000488281" x2="110.504" y2="12.5743" gradientUnits="userSpaceOnUse">
<stop stop-color="#0000FF"/>
<stop offset="0.411458" stop-color="#0B65F6"/>
<stop offset="1" stop-color="#16BAEE"/>
</linearGradient>
<linearGradient id="paint1_linear_82_29325" x1="68.7129" y1="62.2495" x2="81.8798" y2="63.126" gradientUnits="userSpaceOnUse">
<stop stop-color="#0000FF"/>
<stop offset="0.411458" stop-color="#0B65F6"/>
<stop offset="1" stop-color="#16BAEE"/>
</linearGradient>
<linearGradient id="paint2_linear_82_29325" x1="50.4839" y1="23.0947" x2="54.9237" y2="23.6167" gradientUnits="userSpaceOnUse">
<stop stop-color="#0000FF"/>
<stop offset="0.411458" stop-color="#0B65F6"/>
<stop offset="1" stop-color="#16BAEE"/>
</linearGradient>
<linearGradient id="paint3_linear_82_29325" x1="72.4976" y1="89.668" x2="76.8197" y2="90.1632" gradientUnits="userSpaceOnUse">
<stop stop-color="#0000FF"/>
<stop offset="0.411458" stop-color="#0B65F6"/>
<stop offset="1" stop-color="#16BAEE"/>
</linearGradient>
<clipPath id="clip0_82_29325">
<rect width="100.01" height="100" fill="white" transform="translate(0.495117)"/>
</clipPath>
</defs>
</svg>
