<svg width="33" height="32" viewBox="0 0 33 32" fill="none" xmlns="http://www.w3.org/2000/svg">
<path d="M32.5772 4.15781V27.9423C32.5076 28.9356 32.1017 29.7827 31.4314 30.503C30.6493 31.343 29.735 31.9351 28.5415 31.9679C28.5104 31.9683 28.4805 31.9797 28.457 32H20.3424C20.2337 31.8803 20.2399 31.7317 20.2399 31.5871C20.2399 28.1019 20.2399 24.6172 20.2399 21.1331C20.2399 20.6709 20.3182 20.6005 20.7953 20.5989C22.0334 20.5942 23.2715 20.5989 24.5088 20.5989C24.9726 20.5989 24.9875 20.5849 25.0649 20.1234C25.3178 18.6254 25.5678 17.1273 25.815 15.6293C25.8846 15.2093 25.8674 15.1897 25.4325 15.1889H21.0017C20.8766 15.1889 20.7522 15.1889 20.6271 15.1843C20.3706 15.1843 20.2446 15.0552 20.2423 14.8002C20.2423 14.7064 20.2376 14.6133 20.2376 14.5194C20.2376 13.6247 20.2376 12.7302 20.2376 11.836C20.2376 11.2189 20.2814 11.1743 20.8868 11.1735C22.3332 11.1735 23.7791 11.1735 25.2245 11.1735C25.3183 11.1735 25.4122 11.1735 25.5052 11.1735C25.89 11.1672 25.9166 11.1453 25.9174 10.7676C25.9174 9.23877 25.9174 7.70945 25.9174 6.17961C25.9174 5.79402 25.8908 5.76508 25.5146 5.76508C23.7775 5.76508 22.0404 5.7424 20.3033 5.76508C17.4876 5.80732 15.2195 7.86979 14.88 10.6628C14.8429 10.9724 14.8249 11.284 14.8261 11.5958C14.8261 12.6259 14.8315 13.656 14.8261 14.6853C14.8261 15.1045 14.7478 15.1803 14.3341 15.1835C13.4182 15.1913 12.5031 15.1835 11.588 15.1835C11.089 15.1835 11.0844 15.1882 11.0836 15.6879C11.0836 17.1646 11.0836 18.6415 11.0836 20.1187C11.0836 20.5786 11.0984 20.5927 11.5528 20.5935C12.4578 20.5935 13.3627 20.5935 14.2676 20.5935C14.7541 20.5935 14.8237 20.6654 14.8245 21.1581C14.8245 24.6225 14.8245 28.0862 14.8245 31.5495C14.8245 31.7059 14.8386 31.8624 14.722 31.9945H4.67247C3.67525 31.9398 2.82899 31.5323 2.10396 30.8659C1.16071 30.0017 0.585065 28.956 0.584282 27.6436C0.584282 19.8958 0.582718 12.148 0.57959 4.40027C0.57959 2.31981 2.3167 0.455213 4.20241 0.0719701C4.47857 0.0231196 4.75891 0.00189757 5.03929 0.00861792C12.7456 0.00861792 20.4519 0.0187855 28.1582 1.44588e-05C30.1722 -0.00546044 31.9195 1.54472 32.4443 3.23959C32.5366 3.53836 32.5209 3.85356 32.5772 4.15781Z" fill="#8EA6B2"/>
</svg>
