<svg width="33" height="32" viewBox="0 0 33 32" fill="none" xmlns="http://www.w3.org/2000/svg">
<path d="M0.412842 28.2502V3.74901C0.436761 3.71732 0.455632 3.68211 0.468784 3.64464C0.904636 1.42531 2.62466 0.000861019 4.87489 2.6055e-05C12.605 2.6055e-05 20.3354 2.6055e-05 28.066 2.6055e-05C28.6372 -0.00195386 29.2032 0.108926 29.7314 0.326297C30.2596 0.543669 30.7397 0.86325 31.1441 1.26669C31.5485 1.67013 31.8692 2.14947 32.0877 2.6772C32.3063 3.20493 32.4185 3.77063 32.4179 4.34184C32.4212 12.1131 32.4212 19.8836 32.4179 27.6532C32.4195 28.5603 32.1361 29.445 31.6077 30.1823C31.0793 30.9196 30.3325 31.4722 29.4729 31.7621C29.1899 31.8581 28.8951 31.9207 28.6062 31.9992H4.22529C4.16982 31.9751 4.11294 31.9545 4.05496 31.9374C2.27147 31.585 1.12173 30.528 0.56898 28.8071C0.507192 28.6251 0.46461 28.4364 0.412842 28.2502ZM17.5188 14.1919C17.4812 14.1393 17.4611 14.1243 17.4603 14.1084C17.4553 13.8379 17.4561 13.5674 17.4478 13.2968C17.4311 12.8242 17.2198 12.6155 16.7489 12.6138C15.8221 12.6105 14.895 12.6105 13.9676 12.6138C13.4525 12.6138 13.2279 12.8368 13.2279 13.3561C13.2279 17.3127 13.2279 21.2696 13.2279 25.2268C13.2279 25.7712 13.4625 26 14.0136 26.0016C14.8677 26.0016 15.7219 26.0016 16.5761 26.0016C17.244 26.0016 17.4336 25.8171 17.4344 25.155C17.4344 23.1352 17.4261 21.1146 17.4386 19.0948C17.4436 18.3358 17.6123 17.6077 18.0406 16.964C18.519 16.2434 19.2096 15.962 20.0554 16.038C20.9421 16.1148 21.5583 16.5832 21.7754 17.4299C21.9356 18.0736 22.0197 18.7338 22.0259 19.3971C22.0568 21.3434 22.0342 23.2913 22.0351 25.2418C22.0351 25.7804 22.2513 25.9933 22.7957 25.9933C23.7225 25.9933 24.6496 25.9933 25.577 25.9933C26.1272 25.9933 26.3577 25.762 26.3577 25.2134C26.3577 23.0475 26.3786 20.8808 26.3326 18.7157C26.3101 17.7906 26.2101 16.8689 26.0337 15.9604C25.8233 14.8641 25.3123 13.9022 24.3763 13.2242C23.5322 12.6122 22.5653 12.421 21.5475 12.4068C19.9393 12.3867 18.4998 12.7499 17.5188 14.1919ZM11.3116 19.3169V13.5072C11.3116 12.7967 11.1204 12.6097 10.3998 12.6088C9.56488 12.6088 8.72992 12.6088 7.9008 12.6088C7.34304 12.6088 7.10007 12.8535 7.10007 13.4079C7.10007 17.3333 7.10007 21.2577 7.10007 25.1809C7.10007 25.7378 7.36141 25.995 7.92585 25.9966C8.76081 25.9966 9.59411 25.9966 10.4257 25.9966C11.0895 25.9966 11.3108 25.7795 11.3108 25.1224C11.3125 23.1892 11.3127 21.254 11.3116 19.3169ZM11.9245 8.7254C11.9252 8.00406 11.6395 7.31196 11.1302 6.80111C10.6209 6.29027 9.92969 6.00246 9.20835 6.00091C8.48644 5.99726 7.79264 6.28053 7.27959 6.78842C6.76653 7.29631 6.47625 7.9872 6.47259 8.70912C6.46894 9.43103 6.75221 10.1248 7.2601 10.6379C7.76799 11.1509 8.45889 11.4412 9.1808 11.4449C9.54063 11.4506 9.89797 11.3843 10.2318 11.2499C10.5657 11.1156 10.8693 10.9159 11.1249 10.6625C11.3805 10.4092 11.5829 10.1073 11.7202 9.77467C11.8575 9.44201 11.927 9.08527 11.9245 8.7254Z" fill="#8EA6B2"/>
</svg>
