<svg width="101" height="100" viewBox="0 0 101 100" fill="none" xmlns="http://www.w3.org/2000/svg">
<g clip-path="url(#clip0_80_29266)">
<path d="M100.5 1.36739C100.186 0.788586 99.7114 0.313484 99.1326 0C100.5 0 100.5 -2.48865e-06 100.5 1.36739Z" fill="url(#paint0_linear_80_29266)"/>
<path d="M100.336 6.84474C100.302 6.67512 100.296 6.51594 100.5 6.44287V6.8343C100.453 6.91781 100.396 6.92042 100.336 6.84474Z" fill="url(#paint1_linear_80_29266)"/>
<path d="M100.336 6.84473H100.5V7.23616C100.255 7.18136 100.312 7.00391 100.336 6.84473Z" fill="url(#paint2_linear_80_29266)"/>
<path d="M89.6132 41.0348C89.6135 41.2945 89.5611 41.5515 89.4592 41.7903C89.3574 42.0291 89.2082 42.2448 89.0206 42.4243C88.833 42.6038 88.611 42.7434 88.368 42.8347C88.1249 42.926 87.8659 42.9671 87.6065 42.9555C87.0998 42.9352 86.6196 42.7236 86.2627 42.3634C85.9058 42.0031 85.6988 41.5209 85.6833 41.014C85.6854 40.7545 85.7385 40.4981 85.8397 40.2592C85.9409 40.0203 86.0881 39.8037 86.273 39.6217C86.4579 39.4397 86.6768 39.2959 86.9172 39.1986C87.1577 39.1012 87.415 39.0521 87.6744 39.0542C87.9342 39.0482 88.1924 39.0957 88.4331 39.1937C88.6738 39.2916 88.8919 39.438 89.0736 39.6237C89.2554 39.8094 89.3971 40.0305 89.4899 40.2733C89.5828 40.516 89.6247 40.7752 89.6132 41.0348Z" fill="url(#paint3_linear_80_29266)"/>
<path fill-rule="evenodd" clip-rule="evenodd" d="M100.5 8.00605C100.2 8.53789 100.181 9.12162 100.163 9.69967C100.156 9.9101 100.15 10.1198 100.129 10.3259C99.3107 18.4969 97.1967 26.4855 93.8667 33.9918C93.3448 35.1739 92.314 35.6097 91.2572 35.1609C90.2004 34.712 89.7542 33.6317 90.276 32.4026C91.4747 29.5686 92.5376 26.686 93.4648 23.7546C93.6553 23.1466 93.6214 22.9587 92.8881 22.7812C84.7962 20.8215 79.7103 15.7616 77.7506 7.67203C77.543 6.81123 77.2912 6.88383 76.6949 7.05574L76.639 7.07184C66.8169 10.0859 57.963 14.9265 49.9337 21.2886C39.2062 29.7878 30.3992 39.9311 23.8808 52.0054C23.7482 52.246 23.5978 52.4904 23.446 52.7371L23.4459 52.7371C22.952 53.5398 22.4428 54.3672 22.4847 55.1656C22.523 55.895 23.1933 56.4205 23.8626 56.9452C24.151 57.1714 24.4393 57.3973 24.6766 57.6394C25.7907 58.7733 26.9159 59.8967 28.0412 61.02C29.288 62.2647 30.5349 63.5095 31.7666 64.7687C32.2415 65.2566 32.4946 65.254 32.9721 64.7687C36.3575 61.3432 39.7602 57.9352 43.1804 54.5445C44.4851 53.2528 46.2622 53.6207 46.7084 55.2465C46.9693 56.1963 46.4657 56.8566 45.842 57.4776C44.9828 58.3362 44.1249 59.1959 43.2669 60.0557L43.2668 60.0558C40.8157 62.5121 38.3649 64.968 35.8869 67.3939C35.2894 67.981 35.2476 68.2681 35.8869 68.8787C38.8252 71.7387 41.7252 74.6371 44.5869 77.5737C45.1088 78.1138 45.5054 78.1451 46.1526 77.8346C53.5948 74.21 60.2437 69.4319 66.4725 64.0171C72.0322 59.1993 77.0227 53.7614 81.3464 47.8093C81.9518 46.9742 82.6773 46.4549 83.7367 46.7133C84.5196 46.9064 84.9945 47.4962 85.1667 48.279C85.3311 49.0201 84.9501 49.5838 84.5404 50.1501C80.5626 55.5889 76.0577 60.6219 71.0912 65.1758C68.592 67.5032 65.9682 69.6932 63.2315 71.7361C62.6653 72.1589 62.5974 72.4877 62.8505 73.1635C65.7418 80.8617 64.4162 87.8109 58.999 93.972C57.783 95.3524 56.7574 95.3316 55.4397 94.0163C50.5373 89.1174 45.6411 84.2123 40.751 79.3012C40.2447 78.7923 39.8298 78.6801 39.1488 78.881C37.7301 79.2984 36.3063 79.6964 34.8824 80.0945L34.8823 80.0945L34.8822 80.0946L34.8821 80.0946C33.2523 80.5502 31.6224 81.0059 30 81.4906C28.9562 81.7959 28.1942 81.5558 27.4557 80.8095C24.8758 78.1999 22.2768 75.5991 19.6586 73.007C19.3172 72.7074 19.0743 72.3116 18.9616 71.8716C18.8489 71.4316 18.8718 70.9678 19.0272 70.541C19.456 69.083 19.8658 67.6196 20.2755 66.1559L20.2755 66.1559L20.2756 66.1558L20.2756 66.1557C20.721 64.565 21.1664 62.974 21.6366 61.3893C21.8349 60.7108 21.7436 60.2907 21.2295 59.7818C16.329 54.9264 11.4475 50.0552 6.58521 45.1684C5.14218 43.7254 5.12652 42.7546 6.67654 41.4081C12.7749 36.0612 19.6639 34.8112 27.2444 37.5904C28.0794 37.8957 28.4082 37.7339 28.8805 37.118C36.0591 27.7028 44.459 19.5793 54.4272 13.1416C63.6804 7.16839 73.6798 3.04794 84.5639 1.16124C87.2161 0.67802 89.8947 0.352995 92.5854 0.187887C92.6151 0.187887 92.6461 0.189715 92.6777 0.191572C92.8343 0.200808 93.003 0.210748 93.0812 0H95.234C95.6746 0.161687 96.1582 0.161687 96.5988 0H99.1378C99.4878 0.0369029 99.8146 0.192825 100.063 0.441709C100.312 0.690593 100.468 1.01736 100.505 1.36739V4.29529C100.343 4.73672 100.343 5.22126 100.505 5.66269V6.44555C100.405 6.53687 100.405 6.65716 100.404 6.77022C100.404 6.79286 100.404 6.81521 100.403 6.83698L100.403 6.85677C100.397 6.98254 100.391 7.12431 100.505 7.22841L100.5 8.00605ZM94.6054 4.01775C95.5481 3.95163 96.0374 3.91732 96.28 4.14538C96.5417 4.39145 96.5164 4.94296 96.4636 6.08952L96.4579 6.21331C96.2587 10.3023 95.7272 14.3683 94.8687 18.3711C94.7461 18.9478 94.5921 19.0731 93.9945 18.987C88.3972 18.2041 83.2253 13.3921 81.7509 7.55461C81.3113 5.8195 81.3125 5.81925 83.0729 5.45735L83.0896 5.45393C86.8783 4.66316 90.7253 4.18315 94.5921 4.01869L94.6054 4.01775ZM25.1803 40.9932C23.5149 40.4305 21.7713 40.1337 20.0135 40.1138C16.784 40.1067 13.6303 41.0923 10.9796 42.9373C10.5568 43.2296 10.4133 43.407 10.8674 43.8532C13.5368 46.4758 16.175 49.1297 18.8106 51.7836C19.1576 52.1333 19.3272 52.282 19.6091 51.7001C21.3093 48.2704 23.2658 44.9739 25.4621 41.8387C25.8039 41.3403 25.7257 41.1759 25.1803 40.9932ZM59.2678 74.651C61.1674 80.0318 60.6534 84.9978 57.4672 89.6532C57.2271 90.0003 57.0732 90.0551 56.7444 89.7237C54.0653 87.0202 51.3741 84.3289 48.6707 81.6497C48.321 81.3027 48.3002 81.1435 48.7751 80.9139C52.3918 79.1446 55.7919 77.01 59.2678 74.651ZM36.6411 75.4912L25.0185 63.8632C24.8811 64.3467 24.7435 64.8317 24.6055 65.318C24.1484 66.9287 23.6876 68.5527 23.2206 70.1782C23.1498 70.3562 23.1351 70.5516 23.1785 70.7381C23.2218 70.9247 23.3212 71.0935 23.4632 71.222C25.4308 73.167 27.3879 75.1207 29.3345 77.0831C29.4252 77.1981 29.5483 77.2832 29.6878 77.3274C29.8274 77.3716 29.9771 77.3728 30.1174 77.331L36.6411 75.4912Z" fill="url(#paint4_linear_80_29266)"/>
<path fill-rule="evenodd" clip-rule="evenodd" d="M73.9347 45.5822C75.4424 43.3292 76.2482 40.6798 76.2503 37.9688C76.2352 34.3378 74.7872 30.8597 72.2212 28.2907C69.6553 25.7217 66.1788 24.2697 62.548 24.2505C59.8371 24.2495 57.1868 25.0523 54.9321 26.5574C52.6775 28.0626 50.9197 30.2025 49.8811 32.7066C48.8425 35.2107 48.5697 37.9665 49.0972 40.6256C49.6247 43.2847 50.9287 45.7278 52.8445 47.6458C54.7603 49.5638 57.2018 50.8707 59.8602 51.4012C62.5187 51.9317 65.2747 51.6621 67.78 50.6263C70.2852 49.5905 72.427 47.8352 73.9347 45.5822ZM67.9006 29.862C66.297 28.8025 64.4151 28.2427 62.4932 28.2535C61.2181 28.25 59.955 28.4997 58.7772 28.9883C57.5995 29.4769 56.5305 30.1945 55.6323 31.0995C54.734 32.0045 54.0245 33.079 53.5449 34.2604C53.0652 35.4419 52.825 36.7068 52.8381 37.9818C52.8418 39.9039 53.4157 41.7816 54.4873 43.3771C55.5589 44.9727 57.0798 46.2144 58.8576 46.9449C60.6353 47.6754 62.5899 47.8618 64.4737 47.4806C66.3575 47.0994 68.0858 46.1677 69.4397 44.8036C70.7936 43.4394 71.7122 41.7041 72.0791 39.8174C72.4461 37.9307 72.2449 35.9776 71.5011 34.2054C70.7572 32.4331 69.5042 30.9215 67.9006 29.862Z" fill="url(#paint5_linear_80_29266)"/>
<path fill-rule="evenodd" clip-rule="evenodd" d="M21.283 77.4548C19.9326 76.4779 18.3062 75.9565 16.6396 75.9662C15.7926 75.9527 14.9501 76.0923 14.1528 76.3785C11.9113 77.1118 10.523 78.795 9.36444 80.7286C6.19654 86.0129 3.47226 91.5295 0.753197 97.0487C0.340901 97.8994 0.419185 98.7214 1.08721 99.3973C1.75523 100.073 2.572 100.164 3.41746 99.7574C4.98314 98.9954 6.54882 98.2125 8.1145 97.4297C8.74982 97.1051 9.3864 96.783 10.023 96.4608C13.8652 94.5164 17.7065 92.5724 21.2636 90.1099C24.0949 88.158 25.1935 84.6716 24.1497 81.3993C23.6374 79.8133 22.6333 78.4317 21.283 77.4548ZM8.30499 90.8416C7.8609 91.6936 7.41342 92.5522 6.9559 93.4162C7.77114 93.2532 8.38708 92.9031 8.98496 92.5633C9.1143 92.4898 9.24279 92.4168 9.37227 92.3463C9.82037 92.112 10.2692 91.8792 10.7181 91.6463C13.4895 90.2085 16.2605 88.7709 18.8499 87.0124C20.272 86.0469 20.8461 84.656 20.4625 82.952C20.3325 82.2272 19.9842 81.5594 19.4642 81.038C18.9442 80.5166 18.2774 80.1665 17.5529 80.0345C15.8359 79.6431 14.4999 80.2641 13.4874 81.6446C13.2069 82.0261 12.9611 82.4327 12.7152 82.8395C12.6752 82.9057 12.6351 82.972 12.595 83.0381C11.061 85.5538 9.69974 88.1656 8.30499 90.8416Z" fill="url(#paint6_linear_80_29266)"/>
</g>
<defs>
<linearGradient id="paint0_linear_80_29266" x1="99.1326" y1="0" x2="100.637" y2="0.171843" gradientUnits="userSpaceOnUse">
<stop stop-color="#0000FF"/>
<stop offset="0.411458" stop-color="#0B65F6"/>
<stop offset="1" stop-color="#16BAEE"/>
</linearGradient>
<linearGradient id="paint1_linear_80_29266" x1="100.318" y1="6.44287" x2="100.52" y2="6.45212" gradientUnits="userSpaceOnUse">
<stop stop-color="#0000FF"/>
<stop offset="0.411458" stop-color="#0B65F6"/>
<stop offset="1" stop-color="#16BAEE"/>
</linearGradient>
<linearGradient id="paint2_linear_80_29266" x1="100.312" y1="6.84473" x2="100.521" y2="6.85612" gradientUnits="userSpaceOnUse">
<stop stop-color="#0000FF"/>
<stop offset="0.411458" stop-color="#0B65F6"/>
<stop offset="1" stop-color="#16BAEE"/>
</linearGradient>
<linearGradient id="paint3_linear_80_29266" x1="85.6833" y1="39.0537" x2="90.0071" y2="39.5513" gradientUnits="userSpaceOnUse">
<stop stop-color="#0000FF"/>
<stop offset="0.411458" stop-color="#0B65F6"/>
<stop offset="1" stop-color="#16BAEE"/>
</linearGradient>
<linearGradient id="paint4_linear_80_29266" x1="5.5083" y1="0" x2="109.996" y2="11.938" gradientUnits="userSpaceOnUse">
<stop stop-color="#0000FF"/>
<stop offset="0.411458" stop-color="#0B65F6"/>
<stop offset="1" stop-color="#16BAEE"/>
</linearGradient>
<linearGradient id="paint5_linear_80_29266" x1="48.8352" y1="24.2505" x2="78.9891" y2="27.6959" gradientUnits="userSpaceOnUse">
<stop stop-color="#0000FF"/>
<stop offset="0.411458" stop-color="#0B65F6"/>
<stop offset="1" stop-color="#16BAEE"/>
</linearGradient>
<linearGradient id="paint6_linear_80_29266" x1="0.500244" y1="75.9653" x2="26.9386" y2="78.9864" gradientUnits="userSpaceOnUse">
<stop stop-color="#0000FF"/>
<stop offset="0.411458" stop-color="#0B65F6"/>
<stop offset="1" stop-color="#16BAEE"/>
</linearGradient>
<clipPath id="clip0_80_29266">
<rect width="100" height="100" fill="white" transform="translate(0.5)"/>
</clipPath>
</defs>
</svg>
