<svg width="101" height="100" viewBox="0 0 101 100" fill="none" xmlns="http://www.w3.org/2000/svg">
<path d="M50.4993 94.7917C49.4993 94.7917 48.4993 94.6668 47.541 94.3751C25.916 88.4168 10.2493 68.2083 10.2493 46.2916V27.9999C10.2493 23.3332 13.6243 18.2918 17.9576 16.5001L41.166 7C47.2077 4.54167 53.8326 4.54167 59.8326 7L83.0409 16.5001C87.3743 18.2918 90.7493 23.3332 90.7493 27.9999V46.2916C90.7493 68.1666 75.0409 88.3751 53.4576 94.3751C52.4992 94.6668 51.4993 94.7917 50.4993 94.7917ZM50.4993 11.4584C48.1243 11.4584 45.7909 11.9168 43.5409 12.8334L20.3327 22.3333C18.3327 23.1666 16.4993 25.8749 16.4993 28.0416V46.3333C16.4993 65.4583 30.2493 83.1251 49.2076 88.3751C50.041 88.6251 50.9576 88.6251 51.7909 88.3751C70.7493 83.1251 84.4993 65.4583 84.4993 46.3333V28.0416C84.4993 25.8749 82.6659 23.1666 80.6659 22.3333L57.4577 12.8334C55.2077 11.9168 52.8743 11.4584 50.4993 11.4584Z" fill="url(#paint0_linear_913_548)"/>
<path d="M50.5001 55.2082C44.1667 55.2082 39.0417 50.0832 39.0417 43.7498C39.0417 37.4165 44.1667 32.2915 50.5001 32.2915C56.8334 32.2915 61.9584 37.4165 61.9584 43.7498C61.9584 50.0832 56.8334 55.2082 50.5001 55.2082ZM50.5001 38.5415C47.6251 38.5415 45.2917 40.8748 45.2917 43.7498C45.2917 46.6248 47.6251 48.9582 50.5001 48.9582C53.3751 48.9582 55.7084 46.6248 55.7084 43.7498C55.7084 40.8748 53.3751 38.5415 50.5001 38.5415Z" fill="url(#paint1_linear_913_548)"/>
<path d="M50.5 67.7085C48.7917 67.7085 47.375 66.2918 47.375 64.5835V52.0835C47.375 50.3752 48.7917 48.9585 50.5 48.9585C52.2083 48.9585 53.625 50.3752 53.625 52.0835V64.5835C53.625 66.2918 52.2083 67.7085 50.5 67.7085Z" fill="url(#paint2_linear_913_548)"/>
<defs>
<linearGradient id="paint0_linear_913_548" x1="10.2493" y1="5.15625" x2="99.0128" y2="14.265" gradientUnits="userSpaceOnUse">
<stop stop-color="#0000FF"/>
<stop offset="0.411458" stop-color="#0B65F6"/>
<stop offset="1" stop-color="#16BAEE"/>
</linearGradient>
<linearGradient id="paint1_linear_913_548" x1="39.0417" y1="32.2915" x2="64.2478" y2="35.1716" gradientUnits="userSpaceOnUse">
<stop stop-color="#0000FF"/>
<stop offset="0.411458" stop-color="#0B65F6"/>
<stop offset="1" stop-color="#16BAEE"/>
</linearGradient>
<linearGradient id="paint2_linear_913_548" x1="47.375" y1="48.9585" x2="54.3291" y2="49.2234" gradientUnits="userSpaceOnUse">
<stop stop-color="#0000FF"/>
<stop offset="0.411458" stop-color="#0B65F6"/>
<stop offset="1" stop-color="#16BAEE"/>
</linearGradient>
</defs>
</svg>
