<svg width="32" height="32" viewBox="0 0 32 32" fill="none" xmlns="http://www.w3.org/2000/svg">
<path fill-rule="evenodd" clip-rule="evenodd" d="M1.61416 30.7842C1.26678 31.1779 0.919339 31.5716 0.612319 31.9999H3.35908C3.46563 31.9354 3.57045 31.8721 3.65263 31.7735C4.02164 31.3324 4.39853 30.8983 4.77542 30.4641C5.05221 30.1453 5.32899 29.8264 5.60266 29.5049C6.42217 28.5415 7.24749 27.584 8.07304 26.6262C8.60397 26.0103 9.135 25.3942 9.66464 24.7764C10.1737 24.1827 10.6844 23.5908 11.1951 22.9988C12.0546 22.0026 12.9141 21.0064 13.766 20.0016C13.9833 19.7439 14.031 19.7418 14.2187 20.0173C15.1955 21.4507 16.1783 22.8802 17.1609 24.3094C17.7093 25.1071 18.2577 25.9048 18.8051 26.7031C19.2973 27.4218 19.7914 28.139 20.2855 28.8563C20.9532 29.8257 21.6209 30.7951 22.2841 31.7679C22.3459 31.8634 22.4295 31.9429 22.5279 31.9999H31.8323C31.8193 31.8868 31.7522 31.8039 31.6857 31.7217C31.6617 31.692 31.6377 31.6623 31.6164 31.6314C27.5378 25.6915 23.4556 19.7541 19.3699 13.8193C19.2463 13.6396 19.2344 13.5345 19.389 13.3555C22.5729 9.66226 25.7547 5.96683 28.9344 2.2692C29.5612 1.54177 30.188 0.811904 30.8496 0.0405978H29.3042C29.1824 0.0410165 29.0552 0.0306751 28.9279 0.0203263C28.6318 -0.00375361 28.3351 -0.0278734 28.1043 0.0834289C27.8545 0.203976 27.6675 0.454891 27.4807 0.705456C27.4036 0.808826 27.3266 0.912138 27.2452 1.00621C24.2164 4.51789 21.1925 8.03468 18.1734 11.5566C17.9979 11.7613 17.9321 11.731 17.7928 11.5284C15.2164 7.78175 12.6433 4.03259 10.0734 0.280869C9.95401 0.105018 9.83701 0.0371157 9.62459 0.0371157C6.71092 0.0403657 3.79748 0.0419907 0.884278 0.0419907H0.577148C0.603046 0.0802914 0.623661 0.111176 0.64125 0.137527C0.668597 0.178497 0.688628 0.208506 0.70982 0.238387C4.66211 5.99701 8.62056 11.7519 12.5852 17.5031C12.7502 17.7416 12.7422 17.8729 12.5545 18.0899C9.02798 22.175 5.50597 26.2637 1.98848 30.3563C1.86499 30.5 1.73958 30.6421 1.61416 30.7842ZM5.33848 2.12066C5.02922 2.12055 4.71986 2.12044 4.41037 2.12044C4.40309 2.22938 4.4572 2.29385 4.50819 2.35458C4.52304 2.37228 4.53763 2.38965 4.55035 2.40772C10.9374 11.5371 17.3203 20.6688 23.699 29.8029C23.8076 29.9568 23.9162 30.0118 24.1025 30.0118C24.8802 30.0065 25.6577 30.0065 26.4352 30.0065C26.8853 30.0065 27.3355 30.0065 27.7857 30.0055C27.803 30.0054 27.821 30.0073 27.8393 30.0092C27.901 30.0156 27.9672 30.0225 28.0294 29.9578C28.0183 29.941 28.0074 29.9243 27.9966 29.9077C27.9748 29.874 27.9532 29.8407 27.9298 29.8081L13.2788 8.85606C11.7622 6.68595 10.2449 4.51701 8.7269 2.34922C8.71594 2.3335 8.7055 2.31739 8.69509 2.30136C8.63476 2.20835 8.57594 2.11766 8.42743 2.11766C7.39815 2.12141 6.36887 2.12103 5.33848 2.12066Z" fill="#8EA6B2"/>
</svg>
