<svg width="47" height="32" viewBox="0 0 47 32" fill="none" xmlns="http://www.w3.org/2000/svg">
<path d="M23.4963 0C27.8665 0.152272 32.2373 0.280238 36.6053 0.469685C37.9492 0.537834 39.2878 0.684878 40.6144 0.910057C43.419 1.36616 45.149 3.09763 45.658 5.9093C46.3843 9.9177 46.4923 13.9683 46.3729 18.0246C46.3078 20.1585 46.127 22.2911 45.9354 24.4186C45.8491 25.3633 45.6778 26.2984 45.4235 27.2124C44.7887 29.4929 42.8299 31.0242 40.3649 31.3309C35.9219 31.8842 31.4559 32.0007 26.9893 32C22.063 32 17.1352 31.9064 12.2111 31.7684C10.3173 31.7148 8.42213 31.4903 6.54268 31.2286C3.86612 30.8555 2.04815 29.1361 1.57918 26.4517C1.23961 24.5086 0.990826 22.5334 0.919337 20.5639C0.810673 17.5756 0.799235 14.5759 0.919337 11.5884C1.00512 9.51092 1.27678 7.42558 1.66139 5.37956C2.13537 2.84313 4.20141 1.1424 6.79075 0.817837C11.2653 0.257361 15.7641 0.208749 20.2615 0.127966C21.3388 0.108664 22.4161 0.127966 23.4935 0.127966C23.4963 0.083643 23.4963 0.0421786 23.4963 0ZM19.064 22.8887L30.9005 16.0729L19.064 9.25785V22.8887Z" fill="#8EA6B2"/>
</svg>
