<svg width="64" height="64" viewBox="0 0 1200 1200" xmlns="http://www.w3.org/2000/svg">
    <path fill="#fff" d="M567.663 0v190.423h64.679V0h-64.685zm-264.11 57.225l-52.992 37.103l109.203 155.946l52.963-37.104zm592.886 0L787.268 213.171l52.971 37.104L949.44 94.328l-52.992-37.103zm-296.45 185.299c-158.227 0-286.493 96.083-286.493 214.625l162.772 492.948h247.47l162.758-492.948c0-118.54-128.258-214.625-286.492-214.625zM85.465 299.673l-22.099 60.814l178.849 65.114l22.181-60.785l-178.935-65.143zm1029.062 0l-178.936 65.148l22.106 60.792l178.936-65.125zM255.756 577.681l-183.9 49.326l16.686 62.431l183.9-49.255l-16.683-62.502zm688.48 0l-16.674 62.501l183.9 49.247l16.674-62.432l-183.9-49.318zM472.66 986.032v85.686h254.687v-85.673H472.661zm0 128.282V1200h254.687v-85.672H472.661z"/>
</svg>